<svg width="16" height="16" viewBox="0 0 16 16" xmlns="http://www.w3.org/2000/svg" xmlns:xlink="http://www.w3.org/1999/xlink"><defs><path d="M8 1c.412 0 .679.168 1.018.508l5.726 5.725a.875.875 0 1 1-1.238 1.238L8 2.964 2.494 8.471a.875.875 0 1 1-1.238-1.238l5.746-5.746C7.335 1.155 7.588 1 8 1zm0 6c.412 0 .679.168 1.018.508l5.726 5.725a.875.875 0 1 1-1.238 1.238L8 8.964l-5.506 5.507a.875.875 0 1 1-1.238-1.238l5.746-5.746C7.335 7.155 7.588 7 8 7z" id="path-1"/></defs><g id="Final" fill="none" fill-rule="evenodd"><g id="v1-2-1-home-dashboard" transform="translate(-540 -538)"><path d="M0 0h1366v768H0z"/><g id="status" transform="translate(39 195)" opacity=".3"><g id="Group" transform="translate(1 40)"><g id="Widget-Copy-3" transform="translate(410 290)"><g id="Group-5" transform="translate(90 13)"><g id="Icons-/-Arrow-Double-/-M"><g id="Direct-/-Icons-/-Arrow-Double-/-M"><path id="box" d="M0 0h16v16H0z"/><mask id="mask-2" fill="white"><use xlink:href="#path-1"/></mask><use id="icon_arrow-double_m" fill="#000000" fill-rule="nonzero" xlink:href="#path-1"/><g id="Color-/-Black" mask="url(#mask-2)" fill="#333333"><g transform="translate(-82 -57)" id="#333333"><path d="M0 0h180v130H0z"/></g></g></g></g></g></g></g></g></g></g></svg>